<svg width="40" height="40" viewBox="0 0 40 40" fill="none" xmlns="http://www.w3.org/2000/svg">
<circle cx="20" cy="20" r="20" fill="black"/>
<circle cx="20" cy="19" r="10" fill="white"/>
<path d="M30 19.5639C30 13.7282 25.3004 9 19.5 9C13.6996 9 9 13.7282 9 19.5639C9 24.8365 12.8397 29.2069 17.8594 30V22.6176H15.192V19.5639H17.8594V17.2364C17.8594 14.5891 19.4259 13.1267 21.8252 13.1267C22.9743 13.1267 24.1759 13.3329 24.1759 13.3329V15.9313H22.8515C21.5475 15.9313 21.1406 16.7457 21.1406 17.581V19.5639H24.0527L23.587 22.6176H21.1406V30C26.1603 29.2069 30 24.8365 30 19.5639Z" fill="black"/>
<path d="M19.5 9L31.5 7L30.5 20L27 12.5L19.5 9Z" fill="black"/>
</svg>
