<svg width="40" height="40" viewBox="0 0 40 40" fill="none" xmlns="http://www.w3.org/2000/svg">
<circle cx="20" cy="20" r="20" fill="black"/>
<circle cx="20" cy="20" r="10" fill="white"/>
<path d="M18.3393 17.5938L22.5893 20.0089L18.3393 22.4241V17.5938ZM30 12.1429V27.8571C30 29.0402 29.0402 30 27.8571 30H12.1429C10.9598 30 10 29.0402 10 27.8571V12.1429C10 10.9598 10.9598 10 12.1429 10H27.8571C29.0402 10 30 10.9598 30 12.1429ZM28.125 20.0134C28.125 20.0134 28.125 17.3527 27.7857 16.0759C27.5982 15.3705 27.0491 14.817 26.3482 14.6295C25.0848 14.2857 20 14.2857 20 14.2857C20 14.2857 14.9152 14.2857 13.6518 14.6295C12.9509 14.817 12.4018 15.3705 12.2143 16.0759C11.875 17.3482 11.875 20.0134 11.875 20.0134C11.875 20.0134 11.875 22.6741 12.2143 23.9509C12.4018 24.6563 12.9509 25.1875 13.6518 25.375C14.9152 25.7143 20 25.7143 20 25.7143C20 25.7143 25.0848 25.7143 26.3482 25.3705C27.0491 25.183 27.5982 24.6518 27.7857 23.9464C28.125 22.6741 28.125 20.0134 28.125 20.0134Z" fill="black"/>
</svg>
